# .PCD v0.7 - Point Cloud Data file format
VERSION 0.7
FIELDS x y z intensity qx qy qz qw
SIZES 4 4 4 4 4 4 4 4
TYPES F F F F F F F F
COUNTS 1 1 1 1 1 1 1 1
WIDTH 3
HEIGHT 1
VIEWPOINT 0 0 0 1 0 0 0
POINTS 3
DATA ascii
0.448582399632599 -0.39459456712327545 0.709065928886617 255 0.7402786508566148 0.3378280570910477 -0.2430223700659848 -0.5280150098013396
0.47546651534670964 -0.24090652029349913 0.7738721754755145 255 0.4276008137101679 0.19393298358026578 -0.36851815557330725 -0.8023352859041588
0.4754642425459484 -0.24090766068323888 0.7738789852172404 255 0.42759479141929146 0.1939307223975029 -0.3685204032461583 -0.8023380096024144 